<svg width="1200" height="630" viewBox="0 0 1200 630" fill="none" xmlns="http://www.w3.org/2000/svg">
<g clip-path="url(#clip0_1_3258)">
<rect width="1200" height="630" fill="white"/>
<path d="M31.625 -1L31.625 631.5" stroke="#EDEDED"/>
<path d="M63.25 -1L63.25 631.5" stroke="#EDEDED"/>
<path d="M94.875 -1L94.875 631.5" stroke="#EDEDED"/>
<path d="M126.5 -1L126.5 631.5" stroke="#EDEDED"/>
<path d="M158.125 -1L158.125 631.5" stroke="#EDEDED"/>
<path d="M189.75 -1L189.75 631.5" stroke="#EDEDED"/>
<path d="M221.375 -1L221.375 631.5" stroke="#EDEDED"/>
<path d="M253 -1L253 631.5" stroke="#EDEDED"/>
<path d="M284.625 -1L284.625 631.5" stroke="#EDEDED"/>
<path d="M316.25 -1L316.25 631.5" stroke="#EDEDED"/>
<path d="M347.875 -1L347.875 631.5" stroke="#EDEDED"/>
<path d="M379.5 -1L379.5 631.5" stroke="#EDEDED"/>
<path d="M411.125 -1L411.125 631.5" stroke="#EDEDED"/>
<path d="M442.75 -1L442.75 631.5" stroke="#EDEDED"/>
<path d="M474.375 -1L474.375 631.5" stroke="#EDEDED"/>
<path d="M506 -1L506 631.5" stroke="#EDEDED"/>
<path d="M537.625 -1L537.625 631.5" stroke="#EDEDED"/>
<path d="M569.25 -1L569.25 631.5" stroke="#EDEDED"/>
<path d="M600.875 -1L600.875 631.5" stroke="#EDEDED"/>
<path d="M632.5 30.6245H9.83477e-06" stroke="#EDEDED"/>
<path d="M632.5 62.2495H9.83477e-06" stroke="#EDEDED"/>
<path d="M632.5 93.8745H9.83477e-06" stroke="#EDEDED"/>
<path d="M632.5 125.5H9.83477e-06" stroke="#EDEDED"/>
<path d="M632.5 157.125H9.83477e-06" stroke="#EDEDED"/>
<path d="M632.5 188.75H9.83477e-06" stroke="#EDEDED"/>
<path d="M632.5 220.375H9.83477e-06" stroke="#EDEDED"/>
<path d="M632.5 252H9.83477e-06" stroke="#EDEDED"/>
<path d="M632.5 283.625H9.83477e-06" stroke="#EDEDED"/>
<path d="M632.5 315.25H9.83477e-06" stroke="#EDEDED"/>
<path d="M632.5 346.875H9.83477e-06" stroke="#EDEDED"/>
<path d="M632.5 378.5H9.83477e-06" stroke="#EDEDED"/>
<path d="M632.5 410.125H9.83477e-06" stroke="#EDEDED"/>
<path d="M632.5 441.75H9.83477e-06" stroke="#EDEDED"/>
<path d="M632.5 473.375H9.83477e-06" stroke="#EDEDED"/>
<path d="M632.5 505H9.83477e-06" stroke="#EDEDED"/>
<path d="M632.5 536.625H9.83477e-06" stroke="#EDEDED"/>
<path d="M632.5 568.25H9.83477e-06" stroke="#EDEDED"/>
<path d="M632.5 599.875H9.83477e-06" stroke="#EDEDED"/>
<path d="M664.125 -1L664.125 631.5" stroke="#EDEDED"/>
<path d="M632.5 -1L632.5 631.5" stroke="#EDEDED"/>
<path d="M695.75 -1L695.75 631.5" stroke="#EDEDED"/>
<path d="M727.375 -1L727.375 631.5" stroke="#EDEDED"/>
<path d="M759 -1L759 631.5" stroke="#EDEDED"/>
<path d="M790.625 -1L790.625 631.5" stroke="#EDEDED"/>
<path d="M822.25 -1L822.25 631.5" stroke="#EDEDED"/>
<path d="M853.875 -1L853.875 631.5" stroke="#EDEDED"/>
<path d="M885.5 -1L885.5 631.5" stroke="#EDEDED"/>
<path d="M917.125 -1L917.125 631.5" stroke="#EDEDED"/>
<path d="M948.75 -1L948.75 631.5" stroke="#EDEDED"/>
<path d="M980.375 -1L980.375 631.5" stroke="#EDEDED"/>
<path d="M1012 -1L1012 631.5" stroke="#EDEDED"/>
<path d="M1043.62 -1L1043.63 631.5" stroke="#EDEDED"/>
<path d="M1075.25 -1L1075.25 631.5" stroke="#EDEDED"/>
<path d="M1106.88 -1L1106.88 631.5" stroke="#EDEDED"/>
<path d="M1138.5 -1L1138.5 631.5" stroke="#EDEDED"/>
<path d="M1170.12 -1L1170.13 631.5" stroke="#EDEDED"/>
<path d="M1265 30.6245H632.5" stroke="#EDEDED"/>
<path d="M1265 62.2495H632.5" stroke="#EDEDED"/>
<path d="M1265 93.8745H632.5" stroke="#EDEDED"/>
<path d="M1265 125.5H632.5" stroke="#EDEDED"/>
<path d="M1265 157.125H632.5" stroke="#EDEDED"/>
<path d="M1265 188.75H632.5" stroke="#EDEDED"/>
<path d="M1265 220.375H632.5" stroke="#EDEDED"/>
<path d="M1265 252H632.5" stroke="#EDEDED"/>
<path d="M1265 283.625H632.5" stroke="#EDEDED"/>
<path d="M1265 315.25H632.5" stroke="#EDEDED"/>
<path d="M1265 346.875H632.5" stroke="#EDEDED"/>
<path d="M1265 378.5H632.5" stroke="#EDEDED"/>
<path d="M1265 410.125H632.5" stroke="#EDEDED"/>
<path d="M1265 441.75H632.5" stroke="#EDEDED"/>
<path d="M1265 473.375H632.5" stroke="#EDEDED"/>
<path d="M1265 505H632.5" stroke="#EDEDED"/>
<path d="M1265 536.625H632.5" stroke="#EDEDED"/>
<path d="M1265 568.25H632.5" stroke="#EDEDED"/>
<path d="M1265 599.875H632.5" stroke="#EDEDED"/>
<g clip-path="url(#paint0_diamond_1_3258_clip_path)" data-figma-skip-parse="true"><g transform="matrix(0 1.042 -1.0755 0 396.5 72)"><rect x="0" y="0" width="1000.96" height="1000.93" fill="url(#paint0_diamond_1_3258)" opacity="1" shape-rendering="crispEdges"/><rect x="0" y="0" width="1000.96" height="1000.93" transform="scale(1 -1)" fill="url(#paint0_diamond_1_3258)" opacity="1" shape-rendering="crispEdges"/><rect x="0" y="0" width="1000.96" height="1000.93" transform="scale(-1 1)" fill="url(#paint0_diamond_1_3258)" opacity="1" shape-rendering="crispEdges"/><rect x="0" y="0" width="1000.96" height="1000.93" transform="scale(-1)" fill="url(#paint0_diamond_1_3258)" opacity="1" shape-rendering="crispEdges"/></g></g><ellipse cx="396.5" cy="72" rx="1075.5" ry="1042" data-figma-gradient-fill="{&#34;type&#34;:&#34;GRADIENT_DIAMOND&#34;,&#34;stops&#34;:[{&#34;color&#34;:{&#34;r&#34;:1.0,&#34;g&#34;:1.0,&#34;b&#34;:1.0,&#34;a&#34;:1.0},&#34;position&#34;:0.63953727483749390},{&#34;color&#34;:{&#34;r&#34;:1.0,&#34;g&#34;:1.0,&#34;b&#34;:1.0,&#34;a&#34;:0.0},&#34;position&#34;:1.0}],&#34;stopsVar&#34;:[{&#34;color&#34;:{&#34;r&#34;:1.0,&#34;g&#34;:1.0,&#34;b&#34;:1.0,&#34;a&#34;:1.0},&#34;position&#34;:0.63953727483749390},{&#34;color&#34;:{&#34;r&#34;:1.0,&#34;g&#34;:1.0,&#34;b&#34;:1.0,&#34;a&#34;:0.0},&#34;position&#34;:1.0}],&#34;transform&#34;:{&#34;m00&#34;:1.3171076371481377e-13,&#34;m01&#34;:-2151.0,&#34;m02&#34;:1472.0,&#34;m10&#34;:2084.0,&#34;m11&#34;:1.2760819690423725e-13,&#34;m12&#34;:-970.0},&#34;opacity&#34;:1.0,&#34;blendMode&#34;:&#34;NORMAL&#34;,&#34;visible&#34;:true}"/>
<path d="M115 153L79.0318 286H56L91.9682 153H115Z" fill="#08B74F"/>
<text fill="#1A1A1A" xml:space="preserve" style="white-space: pre" font-family="Inter" font-size="64" font-weight="600" letter-spacing="-0.02em"><tspan x="144" y="214.773">EVENT_NAME_REPLACE</tspan><tspan x="144" y="291.773">EVENT_TYPE_REPLACE</tspan></text>
<text fill="#1A1A1A" xml:space="preserve" style="white-space: pre" font-family="Inter" font-size="40" font-weight="600" letter-spacing="-0.02em"><tspan x="144" y="369.545">EVENT_DATE_REPLACE</tspan></text>
<path d="M1090.29 82.8027H1086.05V62.0701H1096.47V66.3056H1090.29V70.3104H1096.47V74.5459H1090.29V82.8027Z" fill="#1A1A1A"/>
<path d="M1102.65 78.5508H1106.65V66.3057H1102.65V78.5508ZM1100.47 82.8028V80.7263H1098.41V64.1302H1100.47V62.0701H1108.83V64.1302H1110.89V80.7263H1108.83V82.8028H1100.47ZM1098.53 62.1361H1100.47V64.1302H1098.53V62.1361ZM1108.83 62.0701H1110.89V64.1302H1108.83V62.0701ZM1108.83 80.7262H1110.89V82.7368H1108.83V80.7262ZM1098.41 80.7262H1100.47V82.8027H1098.41V80.7262Z" fill="#1A1A1A"/>
<path d="M1123.25 82.8027H1112.83V78.5507H1121.07V74.5459H1114.89V72.4859H1112.83V64.1302H1114.89V62.0701H1125.31V66.3056H1117.07V70.3104H1123.25V72.3705H1125.31V80.7262H1123.25V82.8027ZM1112.95 62.136H1114.89V64.1302H1112.95V62.136ZM1112.83 72.4859H1114.89V74.5459H1112.83V72.4859ZM1123.25 70.3104H1125.31V72.3705H1123.25V70.3104ZM1123.25 80.7262H1125.31V82.7368H1123.25V80.7262Z" fill="#1A1A1A"/>
<path d="M1137.67 82.8027H1127.25V78.5507H1135.49V74.5459H1129.31V72.4859H1127.25V64.1302H1129.31V62.0701H1139.73V66.3056H1131.49V70.3104H1137.67V72.3705H1139.73V80.7262H1137.67V82.8027ZM1127.37 62.136H1129.31V64.1302H1127.37V62.136ZM1127.25 72.4859H1129.31V74.5459H1127.25V72.4859ZM1137.67 70.3104H1139.73V72.3705H1137.67V70.3104ZM1137.67 80.7262H1139.73V82.7368H1137.67V80.7262Z" fill="#1A1A1A"/>
<path d="M1087.54 101.743V100.24H1086.05V86.7351H1089.11V98.665H1092.01V86.7351H1095.07V100.24H1093.58V101.743H1087.54ZM1086.05 100.24H1087.54V101.743H1086.05V100.24ZM1093.58 100.24H1095.07V101.695H1093.58V100.24Z" fill="#1A1A1A"/>
<path d="M1099.53 101.743H1096.47V86.7351H1105.49V101.743H1102.43V89.8011H1099.53V101.743Z" fill="#1A1A1A"/>
<path d="M1109.96 101.743H1106.89V86.7351H1109.96V101.743Z" fill="#1A1A1A"/>
<path d="M1117.4 101.743H1114.34V89.8011H1111.36V86.7351H1120.38V89.8011H1117.4V101.743Z" fill="#1A1A1A"/>
<path d="M1129.31 101.743H1121.78V86.7351H1129.31V89.8011H1124.84V92.7H1129.31V95.766H1124.84V98.665H1129.31V101.743Z" fill="#1A1A1A"/>
<path d="M1133.78 98.665H1136.67V89.8011H1133.78V98.665ZM1130.71 101.743V86.7351H1138.24V88.2264H1139.73V100.24H1138.24V101.743H1130.71Z" fill="#1A1A1A"/>
<path d="M1147.04 55.5652H1078.75V108.248H1147.04V55.5652Z" stroke="#1A1A1A" stroke-width="2.76922"/>
<path d="M117.373 520.173H300V575.81H117.373V520.173Z" fill="#1A1A1A"/>
<path d="M128.758 538.18V543.635H131.408V538.18H128.758ZM128.758 554.859H134.215V549.404H128.758V554.859ZM122.987 560.651V532.41H137.179V546.441H139.986V560.651H122.987Z" fill="white"/>
<path d="M156.827 560.651H142.635V532.41H156.827V538.18H148.407V543.635H156.827V549.404H148.407V554.859H156.827V560.651Z" fill="white"/>
<path d="M165.248 560.651H159.477V532.41H176.476V560.651H170.705V538.18H165.248V560.651Z" fill="white"/>
<path d="M181.933 560.651V557.822H179.126V535.217H181.933V532.41H196.125V538.18H184.897V554.859H190.354V549.404H187.547V543.635H196.125V557.822H193.318V560.651H181.933ZM179.283 532.5H181.933V535.217H179.283V532.5ZM193.318 557.822H196.125V560.561H193.318V557.822ZM179.126 557.822H181.933V560.651H179.126V557.822Z" fill="white"/>
<path d="M204.546 538.18V543.635H210.002V538.18H204.546ZM204.546 560.651H198.774V532.41H215.773V560.651H210.002V549.404H204.546V560.651Z" fill="white"/>
<path d="M218.423 560.651V532.41H224.194V554.859H232.615V560.651H218.423Z" fill="white"/>
<path d="M238.072 560.651V557.822H235.265V532.41H241.036V554.859H246.493V532.41H252.264V557.822H249.457V560.651H238.072ZM235.265 557.822H238.072V560.651H235.265V557.822ZM249.457 557.822H252.264V560.561H249.457V557.822Z" fill="white"/>
<path d="M260.685 538.18V543.635H266.141V538.18H260.685ZM260.685 560.651H254.913V532.41H269.105V535.217H271.912V546.598H269.105V549.247H271.912V560.651H266.141V549.404H260.685V560.651ZM269.105 532.41H271.912V535.217H269.105V532.41Z" fill="white"/>
<path d="M277.369 560.651V557.822H274.562V532.41H280.333V554.859H285.79V532.41H291.561V557.822H288.754V560.651H277.369ZM274.562 557.822H277.369V560.651H274.562V557.822ZM288.754 557.822H291.561V560.561H288.754V557.822Z" fill="white"/>
<path d="M66.8802 548.687H63.6318V532.8H71.62V536.046H66.8802V539.114H71.62V542.36H66.8802V548.687Z" fill="#1A1A1A"/>
<path d="M76.3601 545.429H79.4315V536.046H76.3601V545.429ZM74.6917 548.687V547.095H73.1117V534.379H74.6917V532.8H81.0999V534.379H82.6799V547.095H81.0999V548.687H74.6917ZM73.2002 532.851H74.6917V534.379H73.2002V532.851ZM81.0999 532.8L82.6799 532.8V534.379H81.0999V532.8ZM81.0999 547.095H82.6799V548.636H81.0999V547.095ZM73.1117 547.095H74.6917V548.687L73.1117 548.687V547.095Z" fill="#1A1A1A"/>
<path d="M92.1595 548.687H84.1713V545.429H90.4911V542.36H85.7513V540.781H84.1713V534.379H85.7513V532.8H93.7395V536.046H87.4197V539.114H92.1595V540.693H93.7395V547.095H92.1595V548.687ZM84.2598 532.851H85.7513V534.379H84.2598V532.851ZM84.1713 540.781H85.7513V542.36H84.1713L84.1713 540.781ZM92.1595 539.114H93.7395L93.7395 540.693H92.1595V539.114ZM92.1595 547.095H93.7395L93.7395 548.636H92.1595L92.1595 547.095Z" fill="#1A1A1A"/>
<path d="M103.219 548.687H95.2309V545.429H101.551V542.36H96.8109V540.781H95.2309V534.379H96.8109V532.8H104.799V536.046H98.4793V539.114H103.219V540.693H104.799V547.095H103.219V548.687ZM95.3194 532.851H96.8109V534.379H95.3194V532.851ZM95.2309 540.781H96.8109V542.36H95.2309L95.2309 540.781ZM103.219 539.114H104.799L104.799 540.693H103.219V539.114ZM103.219 547.095H104.799L104.799 548.636H103.219L103.219 547.095Z" fill="#1A1A1A"/>
<path d="M64.7731 563.2V562.048H63.6313V551.7H65.9788V560.841H68.1985V551.7H70.546V562.048H69.4042V563.2H64.7731ZM63.6313 562.048H64.7731V563.2H63.6313V562.048ZM69.4042 562.048H70.546V563.163H69.4042V562.048Z" fill="#1A1A1A"/>
<path d="M73.9714 563.2H71.6238V551.7H78.5386V563.2H76.191V554.049H73.9714V563.2Z" fill="#1A1A1A"/>
<path d="M81.9639 563.2H79.6164V551.7H81.9639V563.2Z" fill="#1A1A1A"/>
<path d="M87.6729 563.2H85.3254V554.049H83.0418V551.7H89.9565V554.049H87.6729V563.2Z" fill="#1A1A1A"/>
<path d="M96.8073 563.2H91.0344V551.7H96.8073V554.049H93.3819V556.27H96.8073V558.62H93.3819V560.841H96.8073V563.2Z" fill="#1A1A1A"/>
<path d="M100.233 560.841H102.452V554.049H100.233V560.841ZM97.8851 563.2V551.7H103.658V552.843H104.8V562.048H103.658V563.2H97.8851Z" fill="#1A1A1A"/>
<path fill-rule="evenodd" clip-rule="evenodd" d="M51 520.173V575.827H117.431V520.173H51ZM111.817 570.215V525.785H56.6139V570.215H111.817Z" fill="#1A1A1A"/>
</g>
<defs>
<clipPath id="paint0_diamond_1_3258_clip_path"><ellipse cx="396.5" cy="72" rx="1075.5" ry="1042"/></clipPath><linearGradient id="paint0_diamond_1_3258" x1="0" y1="0" x2="500" y2="500" gradientUnits="userSpaceOnUse">
<stop offset="0.639537" stop-color="white"/>
<stop offset="1" stop-color="white" stop-opacity="0"/>
</linearGradient>
<clipPath id="clip0_1_3258">
<rect width="1200" height="630" fill="white"/>
</clipPath>
</defs>
</svg>
