<svg width="1200" height="630" viewBox="0 0 1200 630" fill="none" xmlns="http://www.w3.org/2000/svg" xmlns:xlink="http://www.w3.org/1999/xlink">
<g clip-path="url(#clip0_54_411)">
<rect width="1200" height="630" fill="white"/>
<path d="M31.625 -1L31.625 631.5" stroke="#EDEDED"/>
<path d="M63.25 -1L63.25 631.5" stroke="#EDEDED"/>
<path d="M94.875 -1L94.875 631.5" stroke="#EDEDED"/>
<path d="M126.5 -1L126.5 631.5" stroke="#EDEDED"/>
<path d="M158.125 -1L158.125 631.5" stroke="#EDEDED"/>
<path d="M189.75 -1L189.75 631.5" stroke="#EDEDED"/>
<path d="M221.375 -1L221.375 631.5" stroke="#EDEDED"/>
<path d="M253 -1L253 631.5" stroke="#EDEDED"/>
<path d="M284.625 -1L284.625 631.5" stroke="#EDEDED"/>
<path d="M316.25 -1L316.25 631.5" stroke="#EDEDED"/>
<path d="M347.875 -1L347.875 631.5" stroke="#EDEDED"/>
<path d="M379.5 -1L379.5 631.5" stroke="#EDEDED"/>
<path d="M411.125 -1L411.125 631.5" stroke="#EDEDED"/>
<path d="M442.75 -1L442.75 631.5" stroke="#EDEDED"/>
<path d="M474.375 -1L474.375 631.5" stroke="#EDEDED"/>
<path d="M506 -1L506 631.5" stroke="#EDEDED"/>
<path d="M537.625 -1L537.625 631.5" stroke="#EDEDED"/>
<path d="M569.25 -1L569.25 631.5" stroke="#EDEDED"/>
<path d="M600.875 -1L600.875 631.5" stroke="#EDEDED"/>
<path d="M632.5 30.6245H9.83477e-06" stroke="#EDEDED"/>
<path d="M632.5 62.2495H9.83477e-06" stroke="#EDEDED"/>
<path d="M632.5 93.8745H9.83477e-06" stroke="#EDEDED"/>
<path d="M632.5 125.5H9.83477e-06" stroke="#EDEDED"/>
<path d="M632.5 157.125H9.83477e-06" stroke="#EDEDED"/>
<path d="M632.5 188.75H9.83477e-06" stroke="#EDEDED"/>
<path d="M632.5 220.375H9.83477e-06" stroke="#EDEDED"/>
<path d="M632.5 252H9.83477e-06" stroke="#EDEDED"/>
<path d="M632.5 283.625H9.83477e-06" stroke="#EDEDED"/>
<path d="M632.5 315.25H9.83477e-06" stroke="#EDEDED"/>
<path d="M632.5 346.875H9.83477e-06" stroke="#EDEDED"/>
<path d="M632.5 378.5H9.83477e-06" stroke="#EDEDED"/>
<path d="M632.5 410.125H9.83477e-06" stroke="#EDEDED"/>
<path d="M632.5 441.75H9.83477e-06" stroke="#EDEDED"/>
<path d="M632.5 473.375H9.83477e-06" stroke="#EDEDED"/>
<path d="M632.5 505H9.83477e-06" stroke="#EDEDED"/>
<path d="M632.5 536.625H9.83477e-06" stroke="#EDEDED"/>
<path d="M632.5 568.25H9.83477e-06" stroke="#EDEDED"/>
<path d="M632.5 599.875H9.83477e-06" stroke="#EDEDED"/>
<path d="M664.125 -1L664.125 631.5" stroke="#EDEDED"/>
<path d="M632.5 -1L632.5 631.5" stroke="#EDEDED"/>
<path d="M695.75 -1L695.75 631.5" stroke="#EDEDED"/>
<path d="M727.375 -1L727.375 631.5" stroke="#EDEDED"/>
<path d="M759 -1L759 631.5" stroke="#EDEDED"/>
<path d="M790.625 -1L790.625 631.5" stroke="#EDEDED"/>
<path d="M822.25 -1L822.25 631.5" stroke="#EDEDED"/>
<path d="M853.875 -1L853.875 631.5" stroke="#EDEDED"/>
<path d="M885.5 -1L885.5 631.5" stroke="#EDEDED"/>
<path d="M917.125 -1L917.125 631.5" stroke="#EDEDED"/>
<path d="M948.75 -1L948.75 631.5" stroke="#EDEDED"/>
<path d="M980.375 -1L980.375 631.5" stroke="#EDEDED"/>
<path d="M1012 -1L1012 631.5" stroke="#EDEDED"/>
<path d="M1043.62 -1L1043.63 631.5" stroke="#EDEDED"/>
<path d="M1075.25 -1L1075.25 631.5" stroke="#EDEDED"/>
<path d="M1106.88 -1L1106.88 631.5" stroke="#EDEDED"/>
<path d="M1138.5 -1L1138.5 631.5" stroke="#EDEDED"/>
<path d="M1170.12 -1L1170.13 631.5" stroke="#EDEDED"/>
<path d="M1265 30.6245H632.5" stroke="#EDEDED"/>
<path d="M1265 62.2495H632.5" stroke="#EDEDED"/>
<path d="M1265 93.8745H632.5" stroke="#EDEDED"/>
<path d="M1265 125.5H632.5" stroke="#EDEDED"/>
<path d="M1265 157.125H632.5" stroke="#EDEDED"/>
<path d="M1265 188.75H632.5" stroke="#EDEDED"/>
<path d="M1265 220.375H632.5" stroke="#EDEDED"/>
<path d="M1265 252H632.5" stroke="#EDEDED"/>
<path d="M1265 283.625H632.5" stroke="#EDEDED"/>
<path d="M1265 315.25H632.5" stroke="#EDEDED"/>
<path d="M1265 346.875H632.5" stroke="#EDEDED"/>
<path d="M1265 378.5H632.5" stroke="#EDEDED"/>
<path d="M1265 410.125H632.5" stroke="#EDEDED"/>
<path d="M1265 441.75H632.5" stroke="#EDEDED"/>
<path d="M1265 473.375H632.5" stroke="#EDEDED"/>
<path d="M1265 505H632.5" stroke="#EDEDED"/>
<path d="M1265 536.625H632.5" stroke="#EDEDED"/>
<path d="M1265 568.25H632.5" stroke="#EDEDED"/>
<path d="M1265 599.875H632.5" stroke="#EDEDED"/>
<g clip-path="url(#paint0_diamond_54_411_clip_path)" data-figma-skip-parse="true"><g transform="matrix(0 1.042 -1.0755 0 437.5 421)"><rect x="0" y="0" width="1000.96" height="1000.93" fill="url(#paint0_diamond_54_411)" opacity="1" shape-rendering="crispEdges"/><rect x="0" y="0" width="1000.96" height="1000.93" transform="scale(1 -1)" fill="url(#paint0_diamond_54_411)" opacity="1" shape-rendering="crispEdges"/><rect x="0" y="0" width="1000.96" height="1000.93" transform="scale(-1 1)" fill="url(#paint0_diamond_54_411)" opacity="1" shape-rendering="crispEdges"/><rect x="0" y="0" width="1000.96" height="1000.93" transform="scale(-1)" fill="url(#paint0_diamond_54_411)" opacity="1" shape-rendering="crispEdges"/></g></g><ellipse cx="437.5" cy="421" rx="1075.5" ry="1042" data-figma-gradient-fill="{&#34;type&#34;:&#34;GRADIENT_DIAMOND&#34;,&#34;stops&#34;:[{&#34;color&#34;:{&#34;r&#34;:1.0,&#34;g&#34;:1.0,&#34;b&#34;:1.0,&#34;a&#34;:1.0},&#34;position&#34;:0.63953727483749390},{&#34;color&#34;:{&#34;r&#34;:1.0,&#34;g&#34;:1.0,&#34;b&#34;:1.0,&#34;a&#34;:0.0},&#34;position&#34;:1.0}],&#34;stopsVar&#34;:[{&#34;color&#34;:{&#34;r&#34;:1.0,&#34;g&#34;:1.0,&#34;b&#34;:1.0,&#34;a&#34;:1.0},&#34;position&#34;:0.63953727483749390},{&#34;color&#34;:{&#34;r&#34;:1.0,&#34;g&#34;:1.0,&#34;b&#34;:1.0,&#34;a&#34;:0.0},&#34;position&#34;:1.0}],&#34;transform&#34;:{&#34;m00&#34;:1.3171076371481377e-13,&#34;m01&#34;:-2151.0,&#34;m02&#34;:1513.0,&#34;m10&#34;:2084.0,&#34;m11&#34;:1.2760819690423725e-13,&#34;m12&#34;:-621.0},&#34;opacity&#34;:1.0,&#34;blendMode&#34;:&#34;NORMAL&#34;,&#34;visible&#34;:true}"/>
<g clip-path="url(#clip1_54_411)">
<rect width="46.4442" height="40" transform="translate(51 528)" fill="#1A1A1A"/>
<rect width="38.4442" height="30" transform="translate(55 533)" fill="white"/>
<path d="M61.9926 548.485H59.7012V537.269H65.3362V539.56H61.9926V541.727H65.3362V544.018H61.9926V548.485Z" fill="#1A1A1A"/>
<path d="M68.6801 546.185H70.8468V539.56H68.6801V546.185ZM67.5032 548.485V547.362H66.3887V538.383H67.5032V537.269H72.0237V538.383H73.1382V547.362H72.0237V548.485H67.5032ZM66.4511 537.304H67.5032V538.383H66.4511V537.304ZM72.0237 537.269H73.1382V538.383H72.0237V537.269ZM72.0237 547.362H73.1382V548.449H72.0237V547.362ZM66.3887 547.362H67.5032V548.485H66.3887V547.362Z" fill="#1A1A1A"/>
<path d="M79.8245 548.485H74.1895V546.185H78.6475V544.018H75.304V542.904H74.1895V538.383H75.304V537.269H80.939V539.56H76.4809V541.727H79.8245V542.841H80.939V547.362H79.8245V548.485ZM74.2519 537.304H75.304V538.383H74.2519V537.304ZM74.1895 542.904H75.304V544.018H74.1895V542.904ZM79.8245 541.727H80.939V542.841H79.8245V541.727ZM79.8245 547.362H80.939V548.449H79.8245V547.362Z" fill="#1A1A1A"/>
<path d="M87.6272 548.485H81.9922V546.185H86.4503V544.018H83.1067V542.904H81.9922V538.383H83.1067V537.269H88.7417V539.56H84.2836V541.727H87.6272V542.841H88.7417V547.362H87.6272V548.485ZM82.0546 537.304H83.1067V538.383H82.0546V537.304ZM81.9922 542.904H83.1067V544.018H81.9922V542.904ZM87.6272 541.727H88.7417V542.841H87.6272V541.727ZM87.6272 547.362H88.7417V548.449H87.6272V547.362Z" fill="#1A1A1A"/>
<path d="M60.5066 558.732V557.919H59.7012V550.613H61.3572V557.067H62.923V550.613H64.5789V557.919H63.7735V558.732H60.5066ZM59.7012 557.919H60.5066V558.732H59.7012V557.919ZM63.7735 557.919H64.5789V558.706H63.7735V557.919Z" fill="#1A1A1A"/>
<path d="M66.9958 558.732H65.3398V550.613H70.2176V558.732H68.5616V552.272H66.9958V558.732Z" fill="#1A1A1A"/>
<path d="M72.6326 558.732H70.9766V550.613H72.6326V558.732Z" fill="#1A1A1A"/>
<path d="M76.6614 558.732H75.0054V552.272H73.3945V550.613H78.2723V552.272H76.6614V558.732Z" fill="#1A1A1A"/>
<path d="M83.1036 558.732H79.0312V550.613H83.1036V552.272H80.6872V553.84H83.1036V555.499H80.6872V557.067H83.1036V558.732Z" fill="#1A1A1A"/>
<path d="M85.5212 557.067H87.087V552.272H85.5212V557.067ZM83.8652 558.732V550.613H87.9376V551.42H88.743V557.919H87.9376V558.732H83.8652Z" fill="#1A1A1A"/>
<path fill-rule="evenodd" clip-rule="evenodd" d="M55 533H93.4442V563H55V533ZM56.4982 534.498V561.502H91.9461V534.498H56.4982Z" fill="#1A1A1A"/>
<rect width="147" height="40" transform="translate(97.4434 528)" fill="#1A1A1A"/>
<text fill="white" xml:space="preserve" style="white-space: pre" font-family="FFF Forward" font-size="14" letter-spacing="0.06em"><tspan x="101.443" y="556.625">CHAPTER_NAME_REPLACE</tspan></text>
</g>
<path d="M262.443 520V576" stroke="#1A1A1A" stroke-width="2"/>
<text fill="#1A1A1A" xml:space="preserve" style="white-space: pre" font-family="Inter" font-size="32" font-weight="600" letter-spacing="-0.02em"><tspan x="280.443" y="559.636">EVENT_NAME_REPLACE</tspan></text>
<path d="M1090.29 82.8027H1086.05V62.0701H1096.47V66.3056H1090.29V70.3104H1096.47V74.5459H1090.29V82.8027Z" fill="#1A1A1A"/>
<path d="M1102.65 78.5508H1106.65V66.3057H1102.65V78.5508ZM1100.47 82.8028V80.7263H1098.41V64.1302H1100.47V62.0701H1108.83V64.1302H1110.89V80.7263H1108.83V82.8028H1100.47ZM1098.53 62.1361H1100.47V64.1302H1098.53V62.1361ZM1108.83 62.0701H1110.89V64.1302H1108.83V62.0701ZM1108.83 80.7262H1110.89V82.7368H1108.83V80.7262ZM1098.41 80.7262H1100.47V82.8027H1098.41V80.7262Z" fill="#1A1A1A"/>
<path d="M1123.25 82.8027H1112.83V78.5507H1121.07V74.5459H1114.89V72.4859H1112.83V64.1302H1114.89V62.0701H1125.31V66.3056H1117.07V70.3104H1123.25V72.3705H1125.31V80.7262H1123.25V82.8027ZM1112.95 62.136H1114.89V64.1302H1112.95V62.136ZM1112.83 72.4859H1114.89V74.5459H1112.83V72.4859ZM1123.25 70.3104H1125.31V72.3705H1123.25V70.3104ZM1123.25 80.7262H1125.31V82.7368H1123.25V80.7262Z" fill="#1A1A1A"/>
<path d="M1137.67 82.8027H1127.25V78.5507H1135.49V74.5459H1129.31V72.4859H1127.25V64.1302H1129.31V62.0701H1139.73V66.3056H1131.49V70.3104H1137.67V72.3705H1139.73V80.7262H1137.67V82.8027ZM1127.37 62.136H1129.31V64.1302H1127.37V62.136ZM1127.25 72.4859H1129.31V74.5459H1127.25V72.4859ZM1137.67 70.3104H1139.73V72.3705H1137.67V70.3104ZM1137.67 80.7262H1139.73V82.7368H1137.67V80.7262Z" fill="#1A1A1A"/>
<path d="M1087.54 101.743V100.24H1086.05V86.7351H1089.11V98.665H1092.01V86.7351H1095.07V100.24H1093.58V101.743H1087.54ZM1086.05 100.24H1087.54V101.743H1086.05V100.24ZM1093.58 100.24H1095.07V101.695H1093.58V100.24Z" fill="#1A1A1A"/>
<path d="M1099.53 101.743H1096.47V86.7351H1105.49V101.743H1102.43V89.8011H1099.53V101.743Z" fill="#1A1A1A"/>
<path d="M1109.96 101.743H1106.89V86.7351H1109.96V101.743Z" fill="#1A1A1A"/>
<path d="M1117.4 101.743H1114.34V89.8011H1111.36V86.7351H1120.38V89.8011H1117.4V101.743Z" fill="#1A1A1A"/>
<path d="M1129.31 101.743H1121.78V86.7351H1129.31V89.8011H1124.84V92.7H1129.31V95.766H1124.84V98.665H1129.31V101.743Z" fill="#1A1A1A"/>
<path d="M1133.78 98.665H1136.67V89.8011H1133.78V98.665ZM1130.71 101.743V86.7351H1138.24V88.2264H1139.73V100.24H1138.24V101.743H1130.71Z" fill="#1A1A1A"/>
<path d="M1147.04 55.5652H1078.75V108.248H1147.04V55.5652Z" stroke="#1A1A1A" stroke-width="2.76922"/>
<text fill="#1A1A1A" xml:space="preserve" style="white-space: pre" font-family="Inter" font-size="48" font-weight="bold" letter-spacing="-0.02em"><tspan x="51" y="158.955">TALK_TITLE_REPLACE</tspan><tspan x="51" y="225.955">SESSION_TYPE_REPLACE</tspan></text>
<path d="M51 270H964" stroke="#08B74F" stroke-width="2"/>
<rect x="51" y="298" width="100" height="100" fill="#D9D9D9"/>
<rect x="51" y="298" width="100" height="100" fill="url(#pattern0_54_411)"/>
<text fill="#1A1A1A" xml:space="preserve" style="white-space: pre" font-family="Inter" font-size="36" font-weight="bold" letter-spacing="-0.02em"><tspan x="167" y="358.091">SPEAKER_NAME_REPLACE</tspan></text>
<text fill="#929292" xml:space="preserve" style="white-space: pre" font-family="Inter" font-size="24" font-weight="600" letter-spacing="-0.02em"><tspan x="167" y="393.727">SPEAKER_DESIGNATION_REPLACE</tspan></text>
</g>
<defs>
<clipPath id="paint0_diamond_54_411_clip_path"><ellipse cx="437.5" cy="421" rx="1075.5" ry="1042"/></clipPath><pattern id="pattern0_54_411" patternContentUnits="objectBoundingBox" width="1" height="1">
<use xlink:href="#image0_54_411" transform="scale(0.000925926)"/>
</pattern>
<linearGradient id="paint0_diamond_54_411" x1="0" y1="0" x2="500" y2="500" gradientUnits="userSpaceOnUse">
<stop offset="0.639537" stop-color="white"/>
<stop offset="1" stop-color="white" stop-opacity="0"/>
</linearGradient>
<clipPath id="clip0_54_411">
<rect width="1200" height="630" fill="white"/>
</clipPath>
<clipPath id="clip1_54_411">
<rect x="51" y="528" width="193.444" height="40" rx="4" fill="white"/>
</clipPath>
<image id="image0_54_411" width="1080" height="1080" preserveAspectRatio="none" xlink:href="https://fossunited.org/SPEAKER_IMAGE_REPLACE"/>
</defs>
</svg>

