<svg width="1200" height="630" viewBox="0 0 1200 630" fill="none" xmlns="http://www.w3.org/2000/svg" xmlns:xlink="http://www.w3.org/1999/xlink">
<g clip-path="url(#clip0_56_20848)">
<rect width="1200" height="630" fill="white"/>
<path d="M31.625 -1L31.625 631.5" stroke="#EDEDED"/>
<path d="M63.25 -1L63.25 631.5" stroke="#EDEDED"/>
<path d="M94.875 -1L94.875 631.5" stroke="#EDEDED"/>
<path d="M126.5 -1L126.5 631.5" stroke="#EDEDED"/>
<path d="M158.125 -1L158.125 631.5" stroke="#EDEDED"/>
<path d="M189.75 -1L189.75 631.5" stroke="#EDEDED"/>
<path d="M221.375 -1L221.375 631.5" stroke="#EDEDED"/>
<path d="M253 -1L253 631.5" stroke="#EDEDED"/>
<path d="M284.625 -1L284.625 631.5" stroke="#EDEDED"/>
<path d="M316.25 -1L316.25 631.5" stroke="#EDEDED"/>
<path d="M347.875 -1L347.875 631.5" stroke="#EDEDED"/>
<path d="M379.5 -1L379.5 631.5" stroke="#EDEDED"/>
<path d="M411.125 -1L411.125 631.5" stroke="#EDEDED"/>
<path d="M442.75 -1L442.75 631.5" stroke="#EDEDED"/>
<path d="M474.375 -1L474.375 631.5" stroke="#EDEDED"/>
<path d="M506 -1L506 631.5" stroke="#EDEDED"/>
<path d="M537.625 -1L537.625 631.5" stroke="#EDEDED"/>
<path d="M569.25 -1L569.25 631.5" stroke="#EDEDED"/>
<path d="M600.875 -1L600.875 631.5" stroke="#EDEDED"/>
<path d="M632.5 30.6245H9.83477e-06" stroke="#EDEDED"/>
<path d="M632.5 62.2495H9.83477e-06" stroke="#EDEDED"/>
<path d="M632.5 93.8745H9.83477e-06" stroke="#EDEDED"/>
<path d="M632.5 125.5H9.83477e-06" stroke="#EDEDED"/>
<path d="M632.5 157.125H9.83477e-06" stroke="#EDEDED"/>
<path d="M632.5 188.75H9.83477e-06" stroke="#EDEDED"/>
<path d="M632.5 220.375H9.83477e-06" stroke="#EDEDED"/>
<path d="M632.5 252H9.83477e-06" stroke="#EDEDED"/>
<path d="M632.5 283.625H9.83477e-06" stroke="#EDEDED"/>
<path d="M632.5 315.25H9.83477e-06" stroke="#EDEDED"/>
<path d="M632.5 346.875H9.83477e-06" stroke="#EDEDED"/>
<path d="M632.5 378.5H9.83477e-06" stroke="#EDEDED"/>
<path d="M632.5 410.125H9.83477e-06" stroke="#EDEDED"/>
<path d="M632.5 441.75H9.83477e-06" stroke="#EDEDED"/>
<path d="M632.5 473.375H9.83477e-06" stroke="#EDEDED"/>
<path d="M632.5 505H9.83477e-06" stroke="#EDEDED"/>
<path d="M632.5 536.625H9.83477e-06" stroke="#EDEDED"/>
<path d="M632.5 568.25H9.83477e-06" stroke="#EDEDED"/>
<path d="M632.5 599.875H9.83477e-06" stroke="#EDEDED"/>
<path d="M664.125 -1L664.125 631.5" stroke="#EDEDED"/>
<path d="M632.5 -1L632.5 631.5" stroke="#EDEDED"/>
<path d="M695.75 -1L695.75 631.5" stroke="#EDEDED"/>
<path d="M727.375 -1L727.375 631.5" stroke="#EDEDED"/>
<path d="M759 -1L759 631.5" stroke="#EDEDED"/>
<path d="M790.625 -1L790.625 631.5" stroke="#EDEDED"/>
<path d="M822.25 -1L822.25 631.5" stroke="#EDEDED"/>
<path d="M853.875 -1L853.875 631.5" stroke="#EDEDED"/>
<path d="M885.5 -1L885.5 631.5" stroke="#EDEDED"/>
<path d="M917.125 -1L917.125 631.5" stroke="#EDEDED"/>
<path d="M948.75 -1L948.75 631.5" stroke="#EDEDED"/>
<path d="M980.375 -1L980.375 631.5" stroke="#EDEDED"/>
<path d="M1012 -1L1012 631.5" stroke="#EDEDED"/>
<path d="M1043.62 -1L1043.63 631.5" stroke="#EDEDED"/>
<path d="M1075.25 -1L1075.25 631.5" stroke="#EDEDED"/>
<path d="M1106.88 -1L1106.88 631.5" stroke="#EDEDED"/>
<path d="M1138.5 -1L1138.5 631.5" stroke="#EDEDED"/>
<path d="M1170.12 -1L1170.13 631.5" stroke="#EDEDED"/>
<path d="M1265 30.6245H632.5" stroke="#EDEDED"/>
<path d="M1265 62.2495H632.5" stroke="#EDEDED"/>
<path d="M1265 93.8745H632.5" stroke="#EDEDED"/>
<path d="M1265 125.5H632.5" stroke="#EDEDED"/>
<path d="M1265 157.125H632.5" stroke="#EDEDED"/>
<path d="M1265 188.75H632.5" stroke="#EDEDED"/>
<path d="M1265 220.375H632.5" stroke="#EDEDED"/>
<path d="M1265 252H632.5" stroke="#EDEDED"/>
<path d="M1265 283.625H632.5" stroke="#EDEDED"/>
<path d="M1265 315.25H632.5" stroke="#EDEDED"/>
<path d="M1265 346.875H632.5" stroke="#EDEDED"/>
<path d="M1265 378.5H632.5" stroke="#EDEDED"/>
<path d="M1265 410.125H632.5" stroke="#EDEDED"/>
<path d="M1265 441.75H632.5" stroke="#EDEDED"/>
<path d="M1265 473.375H632.5" stroke="#EDEDED"/>
<path d="M1265 505H632.5" stroke="#EDEDED"/>
<path d="M1265 536.625H632.5" stroke="#EDEDED"/>
<path d="M1265 568.25H632.5" stroke="#EDEDED"/>
<path d="M1265 599.875H632.5" stroke="#EDEDED"/>
<g clip-path="url(#paint0_diamond_56_20848_clip_path)" data-figma-skip-parse="true"><g transform="matrix(0 1.042 -1.0755 0 437.5 421)"><rect x="0" y="0" width="1000.96" height="1000.93" fill="url(#paint0_diamond_56_20848)" opacity="1" shape-rendering="crispEdges"/><rect x="0" y="0" width="1000.96" height="1000.93" transform="scale(1 -1)" fill="url(#paint0_diamond_56_20848)" opacity="1" shape-rendering="crispEdges"/><rect x="0" y="0" width="1000.96" height="1000.93" transform="scale(-1 1)" fill="url(#paint0_diamond_56_20848)" opacity="1" shape-rendering="crispEdges"/><rect x="0" y="0" width="1000.96" height="1000.93" transform="scale(-1)" fill="url(#paint0_diamond_56_20848)" opacity="1" shape-rendering="crispEdges"/></g></g><ellipse cx="437.5" cy="421" rx="1075.5" ry="1042" data-figma-gradient-fill="{&#34;type&#34;:&#34;GRADIENT_DIAMOND&#34;,&#34;stops&#34;:[{&#34;color&#34;:{&#34;r&#34;:1.0,&#34;g&#34;:1.0,&#34;b&#34;:1.0,&#34;a&#34;:1.0},&#34;position&#34;:0.63953727483749390},{&#34;color&#34;:{&#34;r&#34;:1.0,&#34;g&#34;:1.0,&#34;b&#34;:1.0,&#34;a&#34;:0.0},&#34;position&#34;:1.0}],&#34;stopsVar&#34;:[{&#34;color&#34;:{&#34;r&#34;:1.0,&#34;g&#34;:1.0,&#34;b&#34;:1.0,&#34;a&#34;:1.0},&#34;position&#34;:0.63953727483749390},{&#34;color&#34;:{&#34;r&#34;:1.0,&#34;g&#34;:1.0,&#34;b&#34;:1.0,&#34;a&#34;:0.0},&#34;position&#34;:1.0}],&#34;transform&#34;:{&#34;m00&#34;:1.3171076371481377e-13,&#34;m01&#34;:-2151.0,&#34;m02&#34;:1513.0,&#34;m10&#34;:2084.0,&#34;m11&#34;:1.2760819690423725e-13,&#34;m12&#34;:-621.0},&#34;opacity&#34;:1.0,&#34;blendMode&#34;:&#34;NORMAL&#34;,&#34;visible&#34;:true}"/>
<g clip-path="url(#clip1_56_20848)">
<rect width="46.4442" height="40" transform="translate(51 520)" fill="#1A1A1A"/>
<rect width="38.4442" height="30" transform="translate(55 525)" fill="white"/>
<path d="M61.9936 540.485H59.7021V529.269H65.3372V531.56H61.9936V533.727H65.3372V536.018H61.9936V540.485Z" fill="#1A1A1A"/>
<path d="M68.6811 538.185H70.8477V531.56H68.6811V538.185ZM67.5042 540.485V539.362H66.3896V530.383H67.5042V529.269H72.0247V530.383H73.1392V539.362H72.0247V540.485H67.5042ZM66.4521 529.304H67.5042V530.383H66.4521V529.304ZM72.0247 529.269H73.1392V530.383H72.0247V529.269ZM72.0247 539.362H73.1392V540.449H72.0247V539.362ZM66.3896 539.362H67.5042V540.485H66.3896V539.362Z" fill="#1A1A1A"/>
<path d="M79.8264 540.485H74.1914V538.185H78.6495V536.018H75.3059V534.904H74.1914V530.383H75.3059V529.269H80.941V531.56H76.4829V533.727H79.8264V534.841H80.941V539.362H79.8264V540.485ZM74.2538 529.304H75.3059V530.383H74.2538V529.304ZM74.1914 534.904H75.3059V536.018H74.1914V534.904ZM79.8264 533.727H80.941V534.841H79.8264V533.727ZM79.8264 539.362H80.941V540.449H79.8264V539.362Z" fill="#1A1A1A"/>
<path d="M87.6272 540.485H81.9922V538.185H86.4503V536.018H83.1067V534.904H81.9922V530.383H83.1067V529.269H88.7417V531.56H84.2836V533.727H87.6272V534.841H88.7417V539.362H87.6272V540.485ZM82.0546 529.304H83.1067V530.383H82.0546V529.304ZM81.9922 534.904H83.1067V536.018H81.9922V534.904ZM87.6272 533.727H88.7417V534.841H87.6272V533.727ZM87.6272 539.362H88.7417V540.449H87.6272V539.362Z" fill="#1A1A1A"/>
<path d="M60.5066 550.732V549.919H59.7012V542.613H61.3572V549.067H62.923V542.613H64.5789V549.919H63.7735V550.732H60.5066ZM59.7012 549.919H60.5066V550.732H59.7012V549.919ZM63.7735 549.919H64.5789V550.706H63.7735V549.919Z" fill="#1A1A1A"/>
<path d="M66.9949 550.732H65.3389V542.613H70.2166V550.732H68.5606V544.272H66.9949V550.732Z" fill="#1A1A1A"/>
<path d="M72.6335 550.732H70.9775V542.613H72.6335V550.732Z" fill="#1A1A1A"/>
<path d="M76.6604 550.732H75.0044V544.272H73.3936V542.613H78.2713V544.272H76.6604V550.732Z" fill="#1A1A1A"/>
<path d="M83.1046 550.732H79.0322V542.613H83.1046V544.272H80.6882V545.84H83.1046V547.499H80.6882V549.067H83.1046V550.732Z" fill="#1A1A1A"/>
<path d="M85.5203 549.067H87.086V544.272H85.5203V549.067ZM83.8643 550.732V542.613H87.9366V543.42H88.742V549.919H87.9366V550.732H83.8643Z" fill="#1A1A1A"/>
<path fill-rule="evenodd" clip-rule="evenodd" d="M55 525H93.4442V555H55V525ZM56.4982 526.498V553.502H91.9461V526.498H56.4982Z" fill="#1A1A1A"/>
<rect width="147" height="40" transform="translate(97.4443 520)" fill="#1A1A1A"/>
<text fill="white" xml:space="preserve" style="white-space: pre" font-family="FFF Forward" font-size="14" letter-spacing="0.06em"><tspan x="101.444" y="548.625">{{ .event_chapter }}</tspan></text>
</g>
<path d="M262.444 520V560" stroke="#1A1A1A" stroke-width="2"/>
<text fill="#1A1A1A" xml:space="preserve" style="white-space: pre" font-family="Inter" font-size="32" font-weight="600" letter-spacing="-0.02em"><tspan x="280.444" y="551.636">{{ .event_name }}</tspan></text>
<path d="M1090.29 82.8027H1086.05V62.0701H1096.47V66.3056H1090.29V70.3104H1096.47V74.5459H1090.29V82.8027Z" fill="#1A1A1A"/>
<path d="M1102.65 78.5508H1106.65V66.3057H1102.65V78.5508ZM1100.47 82.8028V80.7263H1098.41V64.1302H1100.47V62.0701H1108.83V64.1302H1110.89V80.7263H1108.83V82.8028H1100.47ZM1098.53 62.1361H1100.47V64.1302H1098.53V62.1361ZM1108.83 62.0701H1110.89V64.1302H1108.83V62.0701ZM1108.83 80.7262H1110.89V82.7368H1108.83V80.7262ZM1098.41 80.7262H1100.47V82.8027H1098.41V80.7262Z" fill="#1A1A1A"/>
<path d="M1123.25 82.8027H1112.83V78.5507H1121.07V74.5459H1114.89V72.4859H1112.83V64.1302H1114.89V62.0701H1125.31V66.3056H1117.07V70.3104H1123.25V72.3705H1125.31V80.7262H1123.25V82.8027ZM1112.95 62.136H1114.89V64.1302H1112.95V62.136ZM1112.83 72.4859H1114.89V74.5459H1112.83V72.4859ZM1123.25 70.3104H1125.31V72.3705H1123.25V70.3104ZM1123.25 80.7262H1125.31V82.7368H1123.25V80.7262Z" fill="#1A1A1A"/>
<path d="M1137.67 82.8027H1127.25V78.5507H1135.49V74.5459H1129.31V72.4859H1127.25V64.1302H1129.31V62.0701H1139.73V66.3056H1131.49V70.3104H1137.67V72.3705H1139.73V80.7262H1137.67V82.8027ZM1127.37 62.136H1129.31V64.1302H1127.37V62.136ZM1127.25 72.4859H1129.31V74.5459H1127.25V72.4859ZM1137.67 70.3104H1139.73V72.3705H1137.67V70.3104ZM1137.67 80.7262H1139.73V82.7368H1137.67V80.7262Z" fill="#1A1A1A"/>
<path d="M1087.54 101.743V100.24H1086.05V86.7351H1089.11V98.665H1092.01V86.7351H1095.07V100.24H1093.58V101.743H1087.54ZM1086.05 100.24H1087.54V101.743H1086.05V100.24ZM1093.58 100.24H1095.07V101.695H1093.58V100.24Z" fill="#1A1A1A"/>
<path d="M1099.53 101.743H1096.47V86.7351H1105.49V101.743H1102.43V89.8011H1099.53V101.743Z" fill="#1A1A1A"/>
<path d="M1109.95 101.743H1106.89V86.7351H1109.95V101.743Z" fill="#1A1A1A"/>
<path d="M1117.4 101.743H1114.34V89.8011H1111.36V86.7351H1120.38V89.8011H1117.4V101.743Z" fill="#1A1A1A"/>
<path d="M1129.31 101.743H1121.78V86.7351H1129.31V89.8011H1124.84V92.7H1129.31V95.766H1124.84V98.665H1129.31V101.743Z" fill="#1A1A1A"/>
<path d="M1133.77 98.665H1136.67V89.8011H1133.77V98.665ZM1130.71 101.743V86.7351H1138.24V88.2264H1139.73V100.24H1138.24V101.743H1130.71Z" fill="#1A1A1A"/>
<path d="M1147.04 55.5652H1078.75V108.248H1147.04V55.5652Z" stroke="#1A1A1A" stroke-width="2.76922"/>
<text fill="#1A1A1A" xml:space="preserve" style="white-space: pre" font-family="Inter" font-size="48" font-weight="bold" letter-spacing="-0.02em"><tspan x="51" y="158.955">{{ .talk_title }}&#10;</tspan><tspan x="51" y="225.955">{{ .session_type }}</tspan></text>
<path d="M51 270H964" stroke="#08B74F" stroke-width="2"/>
<rect x="51" y="298" width="100" height="100" fill="#D9D9D9"/>
<rect x="51" y="298" width="100" height="100" fill="url(#pattern0_56_20848)"/>
<text fill="#1A1A1A" xml:space="preserve" style="white-space: pre" font-family="Inter" font-size="36" font-weight="bold" letter-spacing="-0.02em"><tspan x="167" y="358.091">{{ .speaker_name }}</tspan></text>
<text fill="#929292" xml:space="preserve" style="white-space: pre" font-family="Inter" font-size="24" font-weight="600" letter-spacing="-0.02em"><tspan x="167" y="393.727">{{ .speaker_designation }}</tspan></text>
</g>
<defs>
<clipPath id="paint0_diamond_56_20848_clip_path"><ellipse cx="437.5" cy="421" rx="1075.5" ry="1042"/></clipPath><pattern id="pattern0_56_20848" patternContentUnits="objectBoundingBox" width="1" height="1">
<use xlink:href="#image0_56_20848" transform="scale(0.000925926)"/>
</pattern>
<linearGradient id="paint0_diamond_56_20848" x1="0" y1="0" x2="500" y2="500" gradientUnits="userSpaceOnUse">
<stop offset="0.639537" stop-color="white"/>
<stop offset="1" stop-color="white" stop-opacity="0"/>
</linearGradient>
<clipPath id="clip0_56_20848">
<rect width="1200" height="630" fill="white"/>
</clipPath>
<clipPath id="clip1_56_20848">
<rect x="51" y="520" width="193.444" height="40" rx="4" fill="white"/>
</clipPath>
<image id="image0_56_20848" width="1080" height="1080" preserveAspectRatio="none" xlink:href="data:image/png;base64{{ .image }}"/>
</defs>
</svg>

